<?xml version="1.0" encoding="utf-8"?>
<!-- Generator: Adobe Illustrator 19.1.0, SVG Export Plug-In . SVG Version: 6.00 Build 0)  -->
<svg version="1.1" id="Capa_1" xmlns="http://www.w3.org/2000/svg" xmlns:xlink="http://www.w3.org/1999/xlink" x="0px" y="0px"
	 viewBox="-1 2 17 17" style="enable-background:new -1 2 17 17;" xml:space="preserve">
<style type="text/css">
	.st0{fill:#337ab7;}
</style>
<path class="st0" d="M6.8,2.8c-3.4,3.8-8.6,13-1.5,15.7c3.2,1.3,6.9-0.4,7.5-4.1c0.3-1.9-0.6-4-1.8-5.6C9.5,6.7,7.9,4.9,7.8,2
	C7.4,2.2,6.8,2.8,6.8,2.8z M5.3,16.8c-0.8-0.5-1.3-1.4-1.5-2.3c-0.1-0.4-0.1-0.7-0.1-1.3c0.1-1,0.4-1.4,0.6-2.1
	c0.1,0.6,0.4,1.2,0.8,1.7c0.9,1,2.6,1.6,3.1,2.8c0.4,0.8-0.5,1.6-1.3,1.6C6.3,17.2,5.7,17.1,5.3,16.8z"/>
</svg>
