<?xml version="1.0" encoding="UTF-8" standalone="no"?>
<!-- Generator: Adobe Illustrator 19.1.0, SVG Export Plug-In . SVG Version: 6.00 Build 0)  -->

<svg
   xmlns:dc="http://purl.org/dc/elements/1.1/"
   xmlns:cc="http://creativecommons.org/ns#"
   xmlns:rdf="http://www.w3.org/1999/02/22-rdf-syntax-ns#"
   xmlns:svg="http://www.w3.org/2000/svg"
   xmlns="http://www.w3.org/2000/svg"
   xmlns:sodipodi="http://sodipodi.sourceforge.net/DTD/sodipodi-0.dtd"
   xmlns:inkscape="http://www.inkscape.org/namespaces/inkscape"
   version="1.1"
   id="Capa_1"
   x="0px"
   y="0px"
   viewBox="0 0 17 17"
   style="enable-background:new 0 0 17 17;"
   xml:space="preserve"
   inkscape:version="0.48.4 r9939"
   width="100%"
   height="100%"
   sodipodi:docname="PE.svg"><metadata
   id="metadata19"><rdf:RDF><cc:Work
       rdf:about=""><dc:format>image/svg+xml</dc:format><dc:type
         rdf:resource="http://purl.org/dc/dcmitype/StillImage" /><dc:title /></cc:Work></rdf:RDF></metadata><defs
   id="defs17" /><sodipodi:namedview
   pagecolor="#ffffff"
   bordercolor="#666666"
   borderopacity="1"
   objecttolerance="10"
   gridtolerance="10"
   guidetolerance="10"
   inkscape:pageopacity="0"
   inkscape:pageshadow="2"
   inkscape:window-width="708"
   inkscape:window-height="555"
   id="namedview15"
   showgrid="false"
   inkscape:zoom="13.882353"
   inkscape:cx="8.5"
   inkscape:cy="8.5"
   inkscape:window-x="0"
   inkscape:window-y="0"
   inkscape:window-maximized="0"
   inkscape:current-layer="Capa_1" />
<style
   type="text/css"
   id="style3">
	.st0{fill:#337ab7;}
</style>
<g
   id="g5"
   inkscape:export-xdpi="300.05869"
   inkscape:export-ydpi="300.05869"
   style="fill:#337ab7;fill-opacity:1">
	<path
   class="st0"
   d="M9.9,9.1C9.7,6.7,9.1,1.2,8.5,1.2c-0.6,0-1.2,5.5-1.4,7.9C7.4,8.8,8,8.6,8.5,8.6C9,8.6,9.5,8.7,9.9,9.1z"
   id="path7"
   style="fill:#337ab7;fill-opacity:1" />
	<ellipse
   class="st0"
   cx="8.5"
   cy="10.8"
   rx="1.5"
   ry="1.5"
   id="ellipse9"
   style="fill:#337ab7;fill-opacity:1" />
	<path
   class="st0"
   d="M10.7,10.5c0,0.1,0,0.2,0,0.3c0,1-0.6,1.7-1.4,2.1c2.2,1,7.4,3.2,7.7,2.7C17.3,15,12.6,11.8,10.7,10.5z"
   id="path11"
   style="fill:#337ab7;fill-opacity:1" />
	<path
   class="st0"
   d="M6.2,10.4c-1.9,1.4-6.5,4.7-6.2,5.2c0.3,0.5,5.4-1.9,7.5-2.8c-0.1,0-0.2-0.1-0.3-0.1   C6.5,12.2,6.1,11.3,6.2,10.4z"
   id="path13"
   style="fill:#337ab7;fill-opacity:1" />
</g>
</svg>