<?xml version="1.0" encoding="utf-8"?>
<!-- Generator: Adobe Illustrator 19.1.0, SVG Export Plug-In . SVG Version: 6.00 Build 0)  -->
<svg version="1.1" id="Capa_1" xmlns="http://www.w3.org/2000/svg" xmlns:xlink="http://www.w3.org/1999/xlink" x="0px" y="0px"
	 viewBox="-1 2 17 17" style="enable-background:new -1 2 17 17;" xml:space="preserve">
<style type="text/css">
	.st0{fill:#337ab7;}
</style>
<g>
	<path class="st0" d="M14.4,3.6c-0.1-0.6-0.6-1.1-1.2-1.1H1.4c-0.5,0-1,0.5-1.1,1.1L0.1,5C-0.3,7.5-0.6,9.8-1,12.4
		c0,0.3,0,0.7,0.3,0.9c0.2,0.3,0.5,0.4,0.9,0.4h2.3L4.6,16H3.5c-0.2,0-0.3,0.1-0.3,0.3l-0.3,2c0,0.1,0,0.2,0.1,0.3
		c0.1,0.1,0.2,0.1,0.3,0.1h8.3c0.1,0,0.2,0,0.3-0.1c0.1-0.1,0.1-0.2,0.1-0.3l-0.3-2c0-0.2-0.2-0.3-0.3-0.3h-1.2l2.2-2.3h2.3
		c0.3,0,0.7-0.1,0.9-0.4c0.2-0.2,0.3-0.6,0.3-0.9C15.3,9.3,14.8,6.4,14.4,3.6z M7.4,16H7.2L5,13.6h4.6L7.4,16z M0.5,12.3
		c0.3-2.2,0.7-4.6,1-6.8L1.6,4h11.5c0.4,2.7,0.8,5.6,1.2,8.3L0.5,12.3L0.5,12.3z"/>
	<polygon class="st0" points="8.8,4.6 5.8,4.6 5.7,7.6 8.9,7.6 	"/>
	<path class="st0" d="M9.7,8.4l0.1,2.9h3.3c-0.1-1-0.3-2-0.4-2.9H9.7z"/>
	<polygon class="st0" points="5.7,8.4 5.6,11.4 9,11.4 8.9,8.4 	"/>
	<path class="st0" d="M12.1,4.6H9.5l0.1,2.9h2.9C12.4,6.6,12.3,5.6,12.1,4.6z"/>
	<path class="st0" d="M2.2,6.3c0,0.4-0.1,0.9-0.2,1.3h3l0.1-2.9H2.5L2.2,6.3z"/>
	<path class="st0" d="M1.5,11.4h3.3L5,8.4H2C1.8,9.3,1.6,10.3,1.5,11.4z"/>
</g>
</svg>
