<?xml version="1.0" encoding="utf-8"?>
<!-- Generator: Adobe Illustrator 19.0.0, SVG Export Plug-In . SVG Version: 6.00 Build 0)  -->
<svg version="1.1" id="Capa_1" xmlns="http://www.w3.org/2000/svg" xmlns:xlink="http://www.w3.org/1999/xlink" x="0px" y="0px"
	 viewBox="0 0 40 40" style="enable-background:new 0 0 40 40;" xml:space="preserve">
<style type="text/css">
	.st0{fill-rule:evenodd;clip-rule:evenodd;fill:#FFFFFF;}
</style>
<g id="Shape_1_2_">
	<g id="XMLID_35_">
		<path id="XMLID_36_" class="st0" d="M36.6,12.1c-0.1-0.3-0.4-0.5-0.7-0.5h0c-0.3,0-0.6,0.2-0.7,0.5c0,0-1,2.8-2.3,5.6
			c-2.3,5-3.5,5.1-3.6,5.1c-0.2,0-0.6-0.4-0.9-1.7C26.3,12.9,21.8,1,21.8,0.9c-0.1-0.2-0.3-0.4-0.6-0.5c-0.3,0-0.5,0-0.7,0.2
			c-3.2,3.7-7.1,10-9.1,13.4v-3.2c0-0.3-0.2-0.6-0.5-0.7c-0.3-0.1-0.6-0.1-0.8,0.2c-6.8,6.8-9.6,12.9-8.3,18.3
			C3.6,36,12.3,39,12.7,39.1c0.1,0,0.2,0,0.2,0c0.3,0,0.5-0.1,0.6-0.4c0.2-0.3,0.1-0.7-0.1-0.9c0,0-3.5-3.2-4.2-6.3v0
			c-0.4-1.6-0.5-3.3-0.4-4.6c0.4,2,1,3,1.9,3.1c1.4,0.3,2.7-1.2,5.1-5.5c1-1.8,1.5-2.4,1.8-2.7c0.2,0.4,0.3,1.3,0.5,2
			c0.2,1.1,0.4,2.3,0.8,3.5c1.3,3.8,5,4.3,7.4,4.6c0.8,0.1,1.5,0.2,2,0.3c0.1,0,0.2,0.1,0.2,0.2c0.4,1-0.6,3.8-1.4,5.4
			c-0.1,0.3-0.1,0.6,0.1,0.8c0.2,0.2,0.5,0.3,0.8,0.2c4-1.3,6.9-3.8,8.7-7.4C40.6,23.5,36.8,12.5,36.6,12.1z M35.3,31.1
			C34,33.8,32,35.8,29.2,37c0.6-1.5,1.2-3.7,0.7-5c-0.2-0.5-0.6-0.9-1.1-1.1c-0.6-0.2-1.4-0.3-2.2-0.4c-2.5-0.3-5.2-0.7-6.2-3.6
			c-0.4-1.1-0.6-2.3-0.8-3.3c-0.4-1.9-0.6-3.2-1.7-3.4c-0.1,0-0.1,0-0.2,0c-0.9,0-1.7,1-3.2,3.6c-2.6,4.7-3.4,4.8-3.5,4.7
			c0,0-0.6-0.2-1-3.7c-0.1-0.9-0.3-1.5-0.8-1.7c-0.3-0.1-0.6,0-0.9,0.2c-0.9,0.8-1.3,5-0.4,8.5c0.4,1.6,1.3,3.1,2.2,4.3
			c-0.4-0.2-0.8-0.5-1.2-0.7c-2-1.4-4.6-3.8-5.4-7.2c-1.1-4.5,1.2-9.7,6.6-15.6v4.1c0,0.3,0.2,0.6,0.6,0.7c0.3,0.1,0.7-0.1,0.8-0.4
			c0.1-0.1,5.3-9.2,9.5-14.5C22,5.9,25.3,14.9,27,21.5c0.2,0.7,0.7,2.7,2.3,2.8c0.9,0,2.4-0.6,5-6c0.6-1.3,1.1-2.6,1.5-3.6
			c0.3,1.1,0.6,2.6,0.8,4.3C37.1,22.3,37.2,27.1,35.3,31.1z"/>
	</g>
</g>
</svg>
