<?xml version="1.0" encoding="utf-8"?>
<!-- Generator: Adobe Illustrator 19.0.0, SVG Export Plug-In . SVG Version: 6.00 Build 0)  -->
<svg version="1.1" id="Capa_1" xmlns="http://www.w3.org/2000/svg" xmlns:xlink="http://www.w3.org/1999/xlink" x="0px" y="0px"
	 viewBox="0 0 40 40" style="enable-background:new 0 0 40 40;" xml:space="preserve">
<style type="text/css">
	.st0{fill-rule:evenodd;clip-rule:evenodd;fill:#FFFFFF;}
</style>
<g id="Shape_1_4_">
	<g id="XMLID_60_">
		<path id="XMLID_61_" class="st0" d="M35.7,31.4c-0.4,0.2-0.8,0.4-1.3,0.4c-0.5,0-1-0.1-1.3-0.4l-2.1-1.4c-0.4-0.2-0.8-0.4-1.3-0.4
			c-0.5,0-1,0.1-1.3,0.4l-2.1,1.4c-0.4,0.2-0.8,0.4-1.3,0.4c-0.5,0-1-0.1-1.3-0.4l-2.1-1.4c-0.4-0.2-0.8-0.4-1.3-0.4
			c-0.5,0-1,0.1-1.3,0.4l-2.1,1.4c-0.4,0.2-0.8,0.4-1.3,0.4c-0.5,0-1-0.1-1.3-0.4l-2.1-1.4c-0.4-0.2-0.8-0.4-1.3-0.4
			c-0.5,0-1,0.1-1.3,0.4l-2.1,1.4c-0.4,0.2-0.8,0.4-1.3,0.4c-0.5,0-1-0.1-1.3-0.4l-2.1-1.4c-0.4-0.2-0.8-0.4-1.3-0.4h0v1.6h0
			c0.2,0,0.4,0.1,0.4,0.1l2.1,1.4c0.6,0.4,1.4,0.6,2.2,0.6c0.8,0,1.6-0.2,2.2-0.6l2.1-1.4c0.1,0,0.2-0.1,0.4-0.1
			c0.2,0,0.4,0.1,0.4,0.1l2.1,1.4c0.6,0.4,1.4,0.6,2.2,0.6c0.8,0,1.6-0.2,2.2-0.6l2.1-1.4c0.1,0,0.2-0.1,0.4-0.1
			c0.2,0,0.4,0.1,0.4,0.1l2.1,1.4c0.6,0.4,1.4,0.6,2.2,0.6c0.8,0,1.6-0.2,2.2-0.6l2.1-1.4c0.1,0,0.2-0.1,0.4-0.1
			c0.2,0,0.4,0.1,0.4,0.1l2.1,1.4c0.6,0.4,1.4,0.6,2.2,0.6c0.8,0,1.6-0.2,2.2-0.6l2.1-1.4c0.1,0,0.2-0.1,0.4-0.1v-1.6
			c-0.5,0-1,0.1-1.3,0.4L35.7,31.4z M37.9,23.8l-2.1,1.4c-0.4,0.2-0.8,0.4-1.3,0.4c-0.5,0-1-0.1-1.3-0.4l-2.1-1.4
			c-0.2-0.1-0.4-0.2-0.6-0.3l0-10.2l1.5,1.5c0.3,0.3,0.8,0.3,1.1,0c0.3-0.3,0.3-0.8,0-1.1L20.6,1.3c-0.3-0.3-0.8-0.3-1.1,0L7,13.7h0
			c-0.3,0.3-0.3,0.8,0,1.1c0.3,0.3,0.8,0.3,1.1,0c0,0,0,0,0,0l1.5-1.5l0,10.2c-0.2,0.1-0.3,0.1-0.5,0.2l-2.1,1.4
			c-0.4,0.2-0.8,0.4-1.3,0.4c-0.5,0-1-0.1-1.3-0.4l-2.1-1.4c-0.4-0.2-0.8-0.4-1.3-0.4h0V25h0c0.2,0,0.4,0.1,0.4,0.1l2.1,1.4
			C4,27,4.8,27.2,5.6,27.2c0.8,0,1.6-0.2,2.2-0.6l2.1-1.4c0.1,0,0.2-0.1,0.4-0.1c0.2,0,0.4,0.1,0.4,0.1l2.1,1.4
			c0.6,0.4,1.4,0.6,2.2,0.6c0.8,0,1.6-0.2,2.2-0.6l2.1-1.4c0.1,0,0.2-0.1,0.4-0.1c0.2,0,0.4,0.1,0.4,0.1l2.1,1.4
			c0.6,0.4,1.4,0.6,2.2,0.6c0.8,0,1.6-0.2,2.2-0.6l2.1-1.4c0.1,0,0.2-0.1,0.4-0.1c0.2,0,0.4,0.1,0.4,0.1l2.1,1.4
			c0.6,0.4,1.4,0.6,2.2,0.6c0.8,0,1.6-0.2,2.2-0.6l2.1-1.4c0.1,0,0.2-0.1,0.4-0.1v-1.6C38.7,23.4,38.2,23.6,37.9,23.8z M21.6,24
			l-0.3-0.2c-0.4-0.2-0.8-0.4-1.3-0.4c-0.5,0-1,0.1-1.3,0.4L18.4,24v-5.3h3.2V24z M28.8,23.6c-0.2,0.1-0.4,0.1-0.5,0.2l-2.1,1.4
			c-0.4,0.2-0.8,0.4-1.3,0.4c-0.5,0-1-0.1-1.3-0.4l-0.3-0.2v-7.2c0-0.4-0.4-0.8-0.8-0.8h-4.8c-0.4,0-0.8,0.4-0.8,0.8c0,0,0,0,0,0.1
			h0v7.2l-0.3,0.2c-0.4,0.2-0.8,0.4-1.3,0.4c-0.5,0-1-0.1-1.3-0.4l-2.1-1.4c-0.2-0.1-0.4-0.2-0.6-0.3l0-11.8L20,3l8.8,8.8L28.8,23.6
			z M35.7,37.5c-0.4,0.2-0.8,0.4-1.3,0.4c-0.5,0-1-0.1-1.3-0.4L30.9,36c-0.4-0.2-0.8-0.4-1.3-0.4c-0.5,0-1,0.1-1.3,0.4l-2.1,1.4
			c-0.4,0.2-0.8,0.4-1.3,0.4c-0.5,0-1-0.1-1.3-0.4L21.3,36c-0.4-0.2-0.8-0.4-1.3-0.4c-0.5,0-1,0.1-1.3,0.4l-2.1,1.4
			c-0.4,0.2-0.8,0.4-1.3,0.4c-0.5,0-1-0.1-1.3-0.4L11.7,36c-0.4-0.2-0.8-0.4-1.3-0.4c-0.5,0-1,0.1-1.3,0.4l-2.1,1.4
			c-0.4,0.2-0.8,0.4-1.3,0.4c-0.5,0-1-0.1-1.3-0.4L2.1,36c-0.4-0.2-0.8-0.4-1.3-0.4h0v1.6h0c0.2,0,0.4,0.1,0.4,0.1l2.1,1.4
			c0.6,0.4,1.4,0.6,2.2,0.6c0.8,0,1.6-0.2,2.2-0.6l2.1-1.4c0.1,0,0.2-0.1,0.4-0.1c0.2,0,0.4,0.1,0.4,0.1l2.1,1.4
			c0.6,0.4,1.4,0.6,2.2,0.6c0.8,0,1.6-0.2,2.2-0.6l2.1-1.4c0.1,0,0.2-0.1,0.4-0.1c0.2,0,0.4,0.1,0.4,0.1l2.1,1.4
			c0.6,0.4,1.4,0.6,2.2,0.6c0.8,0,1.6-0.2,2.2-0.6l2.1-1.4c0.1,0,0.2-0.1,0.4-0.1c0.2,0,0.4,0.1,0.4,0.1l2.1,1.4
			c0.6,0.4,1.4,0.6,2.2,0.6c0.8,0,1.6-0.2,2.2-0.6l2.1-1.4c0.1,0,0.2-0.1,0.4-0.1v-1.6c-0.5,0-1,0.1-1.3,0.4L35.7,37.5z"/>
	</g>
</g>
</svg>
