<?xml version="1.0" encoding="utf-8"?>
<!-- Generator: Adobe Illustrator 19.0.0, SVG Export Plug-In . SVG Version: 6.00 Build 0)  -->
<svg version="1.1" id="Capa_1" xmlns="http://www.w3.org/2000/svg" xmlns:xlink="http://www.w3.org/1999/xlink" x="0px" y="0px"
	 viewBox="0 0 40 40" style="enable-background:new 0 0 40 40;" xml:space="preserve">
<style type="text/css">
	.st0{fill-rule:evenodd;clip-rule:evenodd;fill:#FFFFFF;}
</style>
<g id="XMLID_1_">
	<g id="Shape_1_3_">
		<g id="XMLID_56_">
			<path id="XMLID_57_" class="st0" d="M33.2,11.2C32.3,5.9,27.8,2,22.5,2c-4.8,0-9,3.2-10.4,7.8c-0.2,0-0.3,0-0.5,0
				c-1.9,0-3.7,1-4.8,2.6C3,12.6,0,15.7,0,19.6c0,4,3.2,7.2,7.1,7.2h25c4.2,0,7.7-3.5,7.7-7.8C39.8,15.1,36.9,11.8,33.2,11.2z
				 M32.1,25.5h-25c-3.2,0-5.8-2.6-5.8-5.9c0-3.2,2.6-5.9,5.8-5.9l0.4,0l0.2-0.3c0.8-1.4,2.3-2.3,3.9-2.3c0.3,0,0.6,0,0.8,0.1
				l0.6,0.1l0.1-0.6c1.1-4.4,4.9-7.4,9.3-7.4c4.9,0,9,3.7,9.5,8.6l0,0.4c0,0.3,0,0.5,0,0.8c0,5.4-4.3,9.8-9.6,9.8v1.3
				c6,0,10.9-5,10.9-11.1c0-0.2,0-0.3,0-0.5c2.9,0.6,5.2,3.3,5.2,6.4C38.5,22.5,35.6,25.5,32.1,25.5z"/>
		</g>
	</g>
	<g id="Shape_1_copia_2">
		<g id="XMLID_24_">
			<rect id="XMLID_27_" x="4.6" y="29.3" class="st0" width="31.4" height="1.1"/>
		</g>
	</g>
	<g id="Shape_1_copia_3">
		<g id="XMLID_28_">
			<rect id="XMLID_31_" x="4.6" y="32.8" class="st0" width="31.4" height="1.1"/>
		</g>
	</g>
	<g id="Shape_1_copia_4">
		<g id="XMLID_29_">
			<rect id="XMLID_30_" x="4.6" y="36.4" class="st0" width="31.4" height="1.1"/>
		</g>
	</g>
</g>
</svg>
