<?xml version="1.0" encoding="utf-8"?>
<!-- Generator: Adobe Illustrator 19.0.0, SVG Export Plug-In . SVG Version: 6.00 Build 0)  -->
<svg version="1.1" id="Capa_1" xmlns="http://www.w3.org/2000/svg" xmlns:xlink="http://www.w3.org/1999/xlink" x="0px" y="0px"
	 viewBox="0 0 40 40" style="enable-background:new 0 0 40 40;" xml:space="preserve">
<style type="text/css">
	.st0{fill:#FFFFFF;}
	.st1{fill:#EDC133;}
</style>
<g id="Shape_1__x2B__Rectángulo_9_xA0_Trazado_de_recorte">
	<g id="XMLID_81_">
		<path id="XMLID_82_" class="st0" d="M30.5,24.6v-1.3h-1.3v2.1l0.3,0.2c2.2,1.3,3.6,3.6,3.6,6.1c0,2-0.8,3.8-2.2,5.1
			c-1.4,1.4-3.3,2.1-5.3,2c-3.7-0.1-6.9-3.3-6.9-6.9c-0.1-2.6,1.3-5,3.6-6.3l0.3-0.2V4.6c0-1.8,1.5-3.2,3.3-3.2
			c1.8,0,3.3,1.4,3.3,3.2v4.5h1.3V4.6c0-2.5-2.1-4.5-4.6-4.5c-2.5,0-4.6,2-4.6,4.5v20.1c-2.5,1.6-4,4.3-3.9,7.3
			c0.1,4.4,3.8,8,8.2,8.2c0.1,0,0.2,0,0.3,0c2.2,0,4.3-0.8,5.9-2.3c1.7-1.6,2.6-3.7,2.6-6.1C34.4,28.9,32.9,26.2,30.5,24.6z
			 M25.9,2.6c-1.1,0-2,0.9-2,1.9v21.7c-2.7,0.9-4.4,3.7-3.8,6.5c0.4,2.3,2.3,4.2,4.6,4.6c0.4,0.1,0.8,0.1,1.2,0.1
			c1.4,0,2.7-0.5,3.8-1.3c1.4-1.1,2.2-2.7,2.2-4.5c0-2.5-1.6-4.7-3.9-5.5V4.6C27.9,3.5,27,2.6,25.9,2.6z M30.5,31.7
			c0,1.4-0.6,2.6-1.7,3.5c-1.1,0.9-2.5,1.2-3.9,0.9c-1.8-0.3-3.3-1.8-3.6-3.6c-0.4-2.4,1-4.6,3.4-5.2l0.5-0.1V4.6
			c0-0.4,0.3-0.6,0.7-0.6c0.4,0,0.7,0.3,0.7,0.6v22.6l0.5,0.1C29.1,27.8,30.5,29.6,30.5,31.7z M29.2,22h3.9v-1.3h-3.9V22z
			 M33.1,18.1h-3.9v1.3h3.9V18.1z M33.1,15.6h-3.9v1.3h3.9V15.6z M33.1,13h-3.9v1.3h3.9V13z M33.1,10.4h-3.9v1.3h3.9V10.4z"/>
	</g>
</g>
<path id="XMLID_41_" class="st1" d="M13.1,4.2c-2.2,0-3.9,1.7-3.9,3.9c0,2.1,1.8,3.9,3.9,3.9S17,10.2,17,8.1C17,6,15.3,4.2,13.1,4.2
	z M13.1,10.7c-1.4,0-2.6-1.2-2.6-2.6c0-1.4,1.2-2.6,2.6-2.6s2.6,1.2,2.6,2.6C15.7,9.5,14.5,10.7,13.1,10.7z"/>
<rect id="XMLID_19_" x="12.4" y="1" class="st1" width="1.3" height="1.9"/>
<polygon id="XMLID_11_" class="st1" points="8.4,2.6 9.8,4 8.9,4.9 7.5,3.5 "/>
<rect id="XMLID_10_" x="5.9" y="7.5" class="st1" width="2" height="1.3"/>
<polygon id="XMLID_9_" class="st1" points="8.4,13.6 7.5,12.7 8.9,11.3 9.8,12.2 "/>
<rect id="XMLID_8_" x="12.4" y="13.3" class="st1" width="1.3" height="1.9"/>
<polygon id="XMLID_7_" class="st1" points="17.3,11.3 18.7,12.7 17.7,13.6 16.3,12.2 "/>
<rect id="XMLID_3_" x="18.3" y="7.5" class="st1" width="2" height="1.3"/>
<polygon id="XMLID_1_" class="st1" points="17.7,2.6 18.7,3.5 17.3,4.9 16.3,4 "/>
</svg>
