<?xml version="1.0" encoding="utf-8"?>
<!-- Generator: Adobe Illustrator 19.0.0, SVG Export Plug-In . SVG Version: 6.00 Build 0)  -->
<svg version="1.1" id="Capa_1" xmlns="http://www.w3.org/2000/svg" xmlns:xlink="http://www.w3.org/1999/xlink" x="0px" y="0px"
	 viewBox="0 0 40 40" style="enable-background:new 0 0 40 40;" xml:space="preserve">
<style type="text/css">
	.st0{fill-rule:evenodd;clip-rule:evenodd;fill:#FFFFFF;}
</style>
<g id="Shape_1_1_">
	<g id="XMLID_106_">
		<path id="XMLID_107_" class="st0" d="M0,0v1.3h40V0H0z M3.3,5.2h35.5V3.9H3.3V5.2z M4.5,9h31.6V7.7H4.5V9z M33.6,11.6H6.5v1.3
			h27.1V11.6z M32.3,15.5H9.1v1.3h23.2V15.5z M13.6,20.6h20.6v-1.3H13.6V20.6z M20,24.5h13.5v-1.3H20V24.5z M23.9,28.4h9v-1.3h-9
			V28.4z M20.7,32.3h9.7V31h-9.7V32.3z M20,36.1h3.9v-1.3H20V36.1z M19.4,40h1.3v-1.3h-1.3V40z"/>
	</g>
</g>
</svg>
