<?xml version="1.0" encoding="utf-8"?>
<!-- Generator: Adobe Illustrator 19.0.0, SVG Export Plug-In . SVG Version: 6.00 Build 0)  -->
<svg version="1.1" id="Capa_1" xmlns="http://www.w3.org/2000/svg" xmlns:xlink="http://www.w3.org/1999/xlink" x="0px" y="0px"
	 viewBox="0 0 40 40" style="enable-background:new 0 0 40 40;" xml:space="preserve">
<style type="text/css">
	.st0{fill:#FFFFFF;}
	.st1{fill:#EDC133;}
</style>
<g id="Shape_1_copia__x2B__Rectángulo_3_copia_xA0_Trazado_de_recorte">
	<g id="XMLID_136_">
		<path id="XMLID_137_" class="st0" d="M33.4,9.3C32.5,3.9,28,0,22.7,0c-4.8,0-9.1,3.2-10.5,7.9c-0.2,0-0.3,0-0.5,0
			c-1.9,0-3.7,1-4.8,2.6c-3.8,0.2-6.8,3.3-6.8,7.2c0,4,3.2,7.2,7.1,7.2v-1.3c-3.2,0-5.8-2.6-5.8-5.9s2.6-5.9,5.8-5.9l0.4,0l0.2-0.3
			c0.8-1.4,2.3-2.3,3.9-2.3c0.3,0,0.6,0,0.8,0.1l0.6,0.1l0.1-0.6c1.1-4.4,4.9-7.5,9.4-7.5c4.9,0,9,3.7,9.6,8.6l0,0.4
			c0,0.3,0,0.5,0,0.8c0,5.4-4.3,9.8-9.7,9.8v1.3c6,0,10.9-5,10.9-11.1c0-0.2,0-0.3,0-0.5c3,0.6,5.2,3.3,5.2,6.4
			c0,3.6-2.9,6.6-6.4,6.6v1.3c4.3,0,7.7-3.5,7.7-7.9C40,13.1,37.2,9.8,33.4,9.3z M10.4,25.2l-1.2-0.6l-1.3,2.6l1.2,0.6L10.4,25.2z
			 M6,31.2l1.2,0.6l1.3-2.6l-1.2-0.6L6,31.2z M4,35.1l1.2,0.6l1.3-2.6l-1.2-0.6L4,35.1z M2.1,39l1.2,0.6L4.6,37l-1.2-0.6L2.1,39z
			 M12.4,27.2l1.2,0.6l1.3-2.6l-1.2-0.6L12.4,27.2z M10.5,31.2l1.2,0.6l1.3-2.6l-1.2-0.6L10.5,31.2z M8.6,35.1l1.2,0.6l1.3-2.6
			l-1.2-0.6L8.6,35.1z M6.6,39l1.2,0.6L9.1,37l-1.2-0.6L6.6,39z M27.1,25.2l-1.2-0.6l-1.3,2.6l1.2,0.6L27.1,25.2z M22.7,31.2
			l1.2,0.6l1.3-2.6L24,28.6L22.7,31.2z M20.8,35.1l1.2,0.6l1.3-2.6l-1.2-0.6L20.8,35.1z M18.9,39l1.2,0.6l1.3-2.6l-1.2-0.6L18.9,39z
			 M29.2,27.2l1.2,0.6l1.3-2.6l-1.2-0.6L29.2,27.2z M27.2,31.2l1.2,0.6l1.3-2.6l-1.2-0.6L27.2,31.2z M25.3,35.1l1.2,0.6l1.3-2.6
			l-1.2-0.6L25.3,35.1z M23.4,39l1.2,0.6l1.3-2.6l-1.2-0.6L23.4,39z"/>
	</g>
</g>
<polygon id="XMLID_24_" class="st1" points="16.2,31.2 19.5,25.6 18.4,24.9 13.9,32.5 17.7,32.5 13.9,38.7 14.9,39.4 20.1,31.2 "/>
</svg>
