<?xml version="1.0" encoding="utf-8"?>
<!-- Generator: Adobe Illustrator 19.0.0, SVG Export Plug-In . SVG Version: 6.00 Build 0)  -->
<svg version="1.1" id="Capa_1" xmlns="http://www.w3.org/2000/svg" xmlns:xlink="http://www.w3.org/1999/xlink" x="0px" y="0px"
	 viewBox="0 0 40 40" style="enable-background:new 0 0 40 40;" xml:space="preserve">
<style type="text/css">
	.st0{fill:#FFFFFF;}
	.st1{fill:#3B82B6;}
</style>
<g id="Shape_1__x2B__Rectángulo_8_xA0_Trazado_de_recorte">
	<g id="XMLID_103_">
		<path id="XMLID_104_" class="st0" d="M30.4,24.6v-1.3h-1.3v2.1l0.3,0.2c2.2,1.3,3.6,3.6,3.6,6.2c0,2-0.8,3.8-2.2,5.1
			c-1.4,1.4-3.3,2.1-5.3,2c-3.7-0.1-6.9-3.3-6.9-6.9c-0.1-2.6,1.3-5,3.6-6.3l0.3-0.2V4.5c0-1.8,1.5-3.2,3.3-3.2
			c1.8,0,3.3,1.5,3.3,3.2v4.5h1.3V4.5C30.4,2,28.4,0,25.8,0c-2.5,0-4.6,2-4.6,4.5v20.1c-2.5,1.6-4,4.3-3.9,7.3
			c0.1,4.4,3.8,8,8.2,8.2c0.1,0,0.2,0,0.3,0c2.2,0,4.3-0.8,5.9-2.4c1.7-1.6,2.6-3.8,2.6-6.1C34.4,28.8,32.9,26.2,30.4,24.6z
			 M23.9,20.7v5.5c-2.3,0.8-3.9,3-3.9,5.5c0,3.2,2.7,5.8,5.9,5.8c3.3,0,5.9-2.6,5.9-5.8c0-2.5-1.6-4.7-3.9-5.5v-5.5H23.9z
			 M30.4,31.7c0,2.5-2.1,4.5-4.6,4.5c-2.5,0-4.6-2-4.6-4.5c0-2.1,1.4-3.9,3.5-4.4l0.5-0.1V22h1.3v5.2l0.5,0.1
			C29,27.8,30.4,29.6,30.4,31.7z M29.1,22h3.9v-1.3h-3.9V22z M33.1,18.1h-3.9v1.3h3.9V18.1z M33.1,15.5h-3.9v1.3h3.9V15.5z
			 M33.1,12.9h-3.9v1.3h3.9V12.9z M33.1,10.4h-3.9v1.3h3.9V10.4z"/>
	</g>
</g>
<polygon id="XMLID_3_" class="st1" points="18.4,13.1 18.5,11.8 15.6,11.5 14,8.8 17.2,8.8 18.9,11.1 20,10.4 18.8,8.8 20.1,8.8 
	20.1,7.5 18.8,7.5 20,6 18.9,5.2 17.2,7.5 14,7.5 15.6,4.8 18.5,4.5 18.4,3.2 16.4,3.4 17.1,2.3 15.9,1.7 15.3,2.8 14.5,1 13.3,1.5 
	14.5,4.2 12.9,6.9 11.3,4.2 12.5,1.5 11.3,1 10.5,2.8 9.8,1.7 8.7,2.3 9.4,3.4 7.4,3.2 7.3,4.5 10.2,4.8 11.8,7.5 8.6,7.5 6.8,5.2 
	5.8,6 7,7.5 5.7,7.5 5.7,8.8 7,8.8 5.8,10.4 6.8,11.1 8.6,8.8 11.8,8.8 10.2,11.5 7.3,11.8 7.4,13.1 9.4,12.9 8.7,14 9.8,14.6 
	10.5,13.5 11.3,15.3 12.5,14.8 11.3,12.1 12.9,9.4 14.5,12.1 13.3,14.8 14.5,15.3 15.3,13.5 15.9,14.6 17.1,14 16.4,12.9 "/>
</svg>
