<?xml version="1.0" encoding="utf-8"?>
<!-- Generator: Adobe Illustrator 19.0.0, SVG Export Plug-In . SVG Version: 6.00 Build 0)  -->
<svg version="1.1" id="Capa_1" xmlns="http://www.w3.org/2000/svg" xmlns:xlink="http://www.w3.org/1999/xlink" x="0px" y="0px"
	 viewBox="0 0 40 40" style="enable-background:new 0 0 40 40;" xml:space="preserve">
<style type="text/css">
	.st0{fill-rule:evenodd;clip-rule:evenodd;fill:#FFFFFF;}
</style>
<g id="Forma_1">
	<g id="XMLID_42_">
		<path id="XMLID_43_" class="st0" d="M23.1,32.9L23.1,32.9L11.2,33c-0.1,0-0.2,0-0.3,0l-0.6-0.1c-4.9-0.2-8.8-4.2-8.8-9.1
			c0-5,4.1-9.1,9.2-9.1h20c3.4,0,6.2-2.7,6.2-6.1V7.5c0-2.5-1.8-4.7-4.3-4.9c-0.7-0.1-1.3,0-2,0.2c-2.6,0.8-4.2,3.5-3.4,6.1
			c0.1,0.4,0.5,0.6,1,0.5c0.4-0.1,0.6-0.5,0.5-0.9c-0.5-1.8,0.5-3.7,2.3-4.3C31.6,4,32,4,32.5,4c1.6,0.2,2.9,1.7,2.9,3.4v1.1
			c0,2.5-2.1,4.6-4.6,4.6h-20C4.8,13.2,0,17.9,0,23.8c0,5.7,4.5,10.4,10.2,10.6l0.5,0.1c0.2,0,0.3,0,0.5,0l11.9-0.1
			c0.4,0,0.8-0.3,0.8-0.8C23.8,33.3,23.5,32.9,23.1,32.9z M33.2,25.4l-21.5,0l-0.8-0.1c-0.8,0-1.5-0.7-1.5-1.5
			c0-0.8,0.7-1.5,1.5-1.5h20c0.4,0,0.8-0.3,0.8-0.8c0-0.4-0.3-0.8-0.8-0.8h-20c-1.7,0-3.1,1.4-3.1,3c0,1.7,1.4,3,3,3h0l0.8,0.1h21.6
			c2.9,0,5.3,2.4,5.3,5.3c0,0.1,0,0.1,0,0.2c0,0.1,0,0.1,0,0.2c0,1.9-1.6,3.4-3.5,3.4s-3.5-1.5-3.5-3.4c0-0.4-0.3-0.8-0.8-0.8
			c-0.4,0-0.8,0.3-0.8,0.8c0,2.7,2.2,4.9,5,4.9s5-2.2,5-4.9c0-0.1,0-0.1,0-0.2c0-0.1,0-0.1,0-0.2C40,28.4,36.9,25.4,33.2,25.4z
			 M30.8,17h-20C7,17,3.8,20,3.8,23.8c0,3.7,2.9,6.7,6.6,6.8l0.7,0.1l22,0h0c0.4,0,0.8-0.3,0.8-0.8c0-0.4-0.3-0.8-0.8-0.8l-21.9,0
			l-0.7-0.1c-2.9-0.1-5.2-2.4-5.2-5.3c0-2.9,2.4-5.3,5.4-5.3h20c5.1,0,9.2-4.1,9.2-9.1c0-0.4-0.3-0.8-0.8-0.8s-0.8,0.3-0.8,0.8
			C38.5,13.5,35,17,30.8,17z"/>
	</g>
</g>
</svg>
