<svg viewBox="0 0 133.333 200" height="200" width="133" id="svg-52" data-animation-config="" data-animation="logo-final" data-module="animation" data-tpl="svg" xmlns="http://www.w3.org/2000/svg" version="1.1" xmlns:xlink="http://www.w3.org/1999/xlink" xmlns:svgjs="http://svgjs.com/svgjs"><path d="M70.958,61.327  c8.725-9.543,13.635-14.848,14.227-18.291c0.371-2.157-0.703-5.648-6.562-3.202c-3.188,1.329-8.709,3.548-14.519,6.252  c-3.718,1.733-10.921,5.144-15.112,5.079c-2.348-0.035-5.744-1.934-2.705-7.331c4.147-7.366,11.15-16.038,11.15-16.038" stroke-miterlimit="10" stroke-width="4" stroke="#F59B00" fill="none" id="Rubber_8_" style="display: none;"></path><path id="SvgjsPath1015" d="M46.287 43.834C50.434 36.468 57.437 27.796000000000003 57.437 27.796000000000003 " fill="none" stroke="url(#SvgjsLinearGradient1010)" stroke-width="4"></path><path id="SvgjsPath1014" d="M85.185 43.036C85.556 40.879000000000005 84.482 37.388000000000005 78.623 39.834C75.435 41.163000000000004 69.914 43.382000000000005 64.104 46.086000000000006C60.385999999999996 47.819 53.183 51.230000000000004 48.992 51.165000000000006C46.644 51.13000000000001 43.248 49.23100000000001 46.287 43.834 " fill="none" stroke="#ffdd00" stroke-width="4"></path><path id="SvgjsPath1013" d="M70.958 61.327C79.68299999999999 51.784 84.593 46.479 85.185 43.036 " fill="none" stroke="url(#SvgjsLinearGradient1007)" stroke-width="4"></path><g id="Wortmarke"><path d="M131.556,171.2c-1.464,0-2.425,0.459-2.927,1.547l-6.646,14.713l-6.854-14.713   c-0.502-1.088-1.672-1.547-3.135-1.547c-1.425,0-2.094,0.543-1.55,1.629l8.903,18.142c0.209,0.461,0.209,1.004-0.043,1.422   c-1.086,2.047-2.342,3.803-4.518,3.803c-0.836,0-1.588-0.375-2.049-0.75c-0.334-0.252-0.459-0.377-0.836-0.377   c-0.752,0-1.797,0.961-1.797,2.26c0,1.087,1.797,2.676,4.682,2.676c4.393,0,6.939-3.891,9.195-8.523l9.07-18.646   C133.604,171.743,132.935,171.2,131.556,171.2 M46.327,170.488c-3.637,0-6.521,1.297-8.486,2.844   c-0.084-1.589-0.669-2.257-2.299-2.257h-0.627c-0.627,0-0.962,0.249-0.962,1.003v18.475c0,1.088,0.794,1.547,1.965,1.547   s1.923-0.459,1.923-1.547v-11.828c0-0.879,0.46-1.672,1.129-2.217c1.462-1.17,3.677-2.299,6.394-2.299   c4.014,0,6.02,2.216,6.02,6.061v10.283c0,1.088,0.796,1.547,1.966,1.547s1.922-0.459,1.922-1.547v-10.406   C55.271,173.582,52.095,170.488,46.327,170.488 M21.247,170.488c-3.636,0-6.521,1.297-8.485,2.844   c-0.084-1.589-0.669-2.257-2.299-2.257H9.836c-0.627,0-0.961,0.249-0.961,1.003v18.475c0,1.088,0.794,1.547,1.964,1.547   c1.171,0,1.923-0.459,1.923-1.547v-11.828c0-0.879,0.46-1.672,1.129-2.217c1.463-1.17,3.679-2.299,6.396-2.299   c4.013,0,6.02,2.216,6.02,6.061v10.283c0,1.088,0.793,1.547,1.964,1.547c1.17,0,1.923-0.459,1.923-1.547v-10.406   C30.192,173.582,27.015,170.488,21.247,170.488 M96.235,188.379c-4.473,0-7.441-2.842-7.441-7.021c0-4.264,2.973-7.354,7.441-7.354   c2.215,0,4.598,1.002,5.936,2.549c0.5,0.545,0.752,1.09,0.752,1.842v5.854c0,0.71-0.334,1.338-0.836,1.922   C100.79,187.586,98.409,188.379,96.235,188.379 M95.608,200c7.732,0,11.119-4.391,11.119-12.039v-15.842   c0-0.71-0.377-1.044-1.088-1.044h-0.418c-0.877,0-2.09,0.501-2.299,2.006c-1.881-1.589-4.389-2.593-7.148-2.593   c-6.436,0-10.951,4.85-10.951,10.91c0,5.894,4.389,10.492,10.951,10.492c2.635,0,5.143-0.882,7.023-2.345   c0,4.101-2.008,6.854-7.023,6.854c-3.301,0-5.475-1.549-6.436-2.467c-0.293-0.252-0.461-0.377-0.836-0.377   c-0.754,0-1.799,0.92-1.799,2.342C86.704,197.784,90.674,200,95.608,200 M70.235,189.048c-4.764,0-7.982-3.135-7.982-7.397   c0-4.473,3.22-7.646,7.982-7.646c4.641,0,7.775,3.181,7.775,7.646C78.011,185.913,74.875,189.048,70.235,189.048 M70.194,192.643   c6.562,0,11.744-4.598,11.744-10.992c0-6.562-5.182-11.157-11.744-11.157c-6.771,0-11.871,4.598-11.871,11.157   C58.323,188.045,63.422,192.643,70.194,192.643 M2.604,166.419c1.488,0,2.646-1.135,2.646-2.688c0-1.512-1.158-2.646-2.646-2.646   c-1.53,0-2.688,1.136-2.688,2.646C-0.084,165.284,1.074,166.419,2.604,166.419 M2.604,192.1c1.254,0,2.048-0.793,2.048-2.131   v-16.847c0-1.337-0.794-2.132-2.048-2.132s-2.09,0.795-2.09,2.132v16.847C0.514,191.307,1.35,192.1,2.604,192.1" fill="#38633B"></path><path d="M66.583,141.66c-8.043,0-14.584-6.542-14.584-14.583V72.91c0-8.042,6.541-14.583,14.584-14.583   c8.041,0,14.582,6.542,14.582,14.583v54.167C81.165,135.118,74.624,141.66,66.583,141.66 M66.583,62.494   c-5.744,0-10.418,4.672-10.418,10.417v54.167c0,5.742,4.674,10.417,10.418,10.417c5.742,0,10.416-4.675,10.416-10.417V72.91   C76.999,67.166,72.325,62.494,66.583,62.494" fill="#38633B"></path><path d="M66.583,33.333c-9.191,0-16.667-7.477-16.667-16.667S57.392,0,66.583,0c9.189,0,16.666,7.476,16.666,16.667   C83.249,25.856,75.772,33.333,66.583,33.333 M66.583,4.167c-6.893,0-12.5,5.607-12.5,12.5s5.607,12.5,12.5,12.5   c6.894,0,12.5-5.607,12.5-12.5S73.476,4.167,66.583,4.167" fill="#38633B"></path></g><defs id="SvgjsDefs1000"><linearGradient id="SvgjsLinearGradient1007" x1="1" y1="0" x2="0" y2="1" i="0"><stop id="SvgjsStop1008" stop-opacity="1" stop-color="#ffdd00" offset="0"></stop><stop id="SvgjsStop1009" stop-opacity="0.6891428571428572" stop-color="#ffdd00" offset="1"></stop></linearGradient><linearGradient id="SvgjsLinearGradient1010" x1="1" y1="0" x2="0" y2="1"><stop id="SvgjsStop1011" stop-opacity="0.31085714285714283" stop-color="#ffdd00" offset="0"></stop><stop id="SvgjsStop1012" stop-opacity="1" stop-color="#ffdd00" offset="1"></stop></linearGradient></defs></svg>