<?xml version="1.0" encoding="utf-8"?>
<!-- Generator: Adobe Illustrator 19.0.0, SVG Export Plug-In . SVG Version: 6.00 Build 0)  -->
<svg version="1.1" id="Capa_1" xmlns="http://www.w3.org/2000/svg" xmlns:xlink="http://www.w3.org/1999/xlink" x="0px" y="0px"
	 viewBox="0 0 113.4 56.7" style="enable-background:new 0 0 113.4 56.7;" xml:space="preserve">
<style type="text/css">
	.st0{fill:#A10E2F;}
</style>
<g>
	<path d="M44,25.7c0-1,0.1-2.7-1-3.1v-0.1h4.3v0.1c-1.1,0.4-1,2.1-1,3.1v12.8c0,2.4-1.7,3.7-5.1,4.1v-0.1c2.5-1.6,2.8-3,2.8-5.4
		V25.7z"/>
	<path d="M50.6,29.7c0,3.2,2.2,6.4,5.8,6.4c3.4,0,5.6-2.5,5.6-5.9c0-3.3-2.1-6.5-5.7-6.5C52.8,23.8,50.6,26.3,50.6,29.7 M64.5,29.8
		c0,4.6-3.8,8-8.3,8c-4.5,0-8.2-3.2-8.2-7.8c0-4.3,3.7-7.9,8.5-7.8C61.2,22.1,64.5,25.8,64.5,29.8"/>
	<path d="M85.4,25.2L85.4,25.2c-1-1-2.7-1.4-4.1-1.4c-3.5,0-6.2,2.3-6.2,5.9c0,3.6,2.9,6.4,6.5,6.4c1,0,2.1-0.1,3.1-0.4v-3.3
		c0-1,0-2.1-1-2.6v-0.1h3.5v0.1c-0.1,0.3-0.1,0.6-0.1,1v5.2c0,0.3,0,0.7,0.1,1c-1.8,0.3-3.6,0.7-5.4,0.7c-5.8,0-9.2-3.2-9.2-7.7
		c0-4.9,3.9-7.9,9.3-7.9c1.2,0,2.4,0.1,3.5,0.4V25.2z"/>
	<path d="M92.1,35.5l2.9,0.3c1.5,0.1,3.1-0.3,4.2-1.3h0.1l-1,3h-9.4v-0.1c1.2-0.4,1-2.1,1-3.1v-8.5c0-1,0.1-2.7-1-3.1v-0.1H96
		c0.4,0,0.8,0,1.1-0.1h0.1v2.6h-0.1c-0.7-0.8-1.6-0.9-2.7-0.9c-0.8,0-1.6,0-2.3,0.2v4.2h2.7c0.4,0,0.7,0,1-0.1h0.1v2.4h-0.1
		c-0.4-0.7-1.3-0.6-2-0.6h-1.7V35.5z"/>
	<path class="st0" d="M45.5,20.3c-1.9,0-3.1-1.4-3.1-3.1c0-1.7,1.3-3.1,3.1-3.1c1.2,0,1.7,0.3,2,0.4l-0.3,0.7
		c-0.2-0.1-0.8-0.3-1.6-0.3c-1.2,0-2.1,1.1-2.1,2.3c0,1.4,1,2.3,2.2,2.3c0.6,0,0.9-0.1,1.1-0.2v-1.7h1v2.2
		C47.4,20,46.7,20.3,45.5,20.3"/>
	<path class="st0" d="M50.7,16.8c0.8,0,1.2-0.5,1.2-1c0-0.5-0.4-0.9-1.2-0.9h-0.6v1.9H50.7z M52.5,20.3l-1.7-2.8h-0.6v2.7h-1v-6h1.7
		c1.6,0,2.1,0.8,2.1,1.5c0,0.8-0.7,1.4-1.2,1.5l1.8,2.9L52.5,20.3z"/>
	<path class="st0" d="M59,18.2c0,1-0.7,2.1-2.4,2.1c-1.6,0-2.4-0.8-2.4-2.1v-4h1v3.9c0,0.9,0.4,1.4,1.5,1.4c1,0,1.4-0.7,1.4-1.4
		v-3.9H59V18.2z"/>
	<path class="st0" d="M62,16.9c0.7,0,1.2-0.4,1.2-1c0-0.6-0.5-1-1.2-1h-0.5v2H62z M60.5,20.2v-6h1.7c1.4,0,2.1,0.8,2.1,1.6
		c0,1-0.9,1.8-2.1,1.8h-0.7v2.6H60.5z"/>
	<path class="st0" d="M66.3,17.2c0,1.4,0.8,2.4,1.9,2.4c1.2,0,1.9-1,1.9-2.4c0-1.3-0.8-2.4-1.9-2.4C67.1,14.8,66.3,15.8,66.3,17.2
		 M71.3,17.2c0,1.9-1.4,3.1-3,3.1c-1.8,0-3-1.2-3-3.1c0-1.8,1.3-3.1,3-3.1C70.2,14.1,71.3,15.4,71.3,17.2"/>
	<path class="st0" d="M23.7,36c0.4-1.4,0.8-2.9,1.2-5.1l2.5-13.5c0.4-2,0.3-2.7-0.7-3.1c0,0-0.1,0-0.3,0h-8.7c-2,0-3.6,1.6-3.6,3.6
		v18.7c0,2,1.6,3.6,3.6,3.6c0,0,1.9,0,2.1,0C21.5,39.9,22.9,38.7,23.7,36"/>
	<path class="st0" d="M36.4,14.3h-2.3H34c-0.2,0-0.5,0-0.7,0.1c0,0,0,0,0,0c-0.7,0.4-0.9,1.2-1.3,3l-2.5,13.9
		c-0.8,4.2-2,6.9-5.1,8.7c-0.1,0-0.2,0.1-0.2,0.1h12.3c2,0,3.6-1.6,3.6-3.6V17.9C40,15.9,38.4,14.3,36.4,14.3"/>
	<path d="M71.4,34.3l-3.3-4.1c1.8-0.4,3.6-2,3.6-4c0-2.1-1.6-3.6-4.7-3.6h-3.5c0.5,0.4,0.9,0.9,1.3,1.4c0.9,0,1.5,0,1.6,0
		c1.5-0.1,2.9,0.9,2.9,2.5c0,2.1-2.1,3-3.9,3.2l2.1,3.2l2.8,3.4c0.7,0.8,1.4,1.1,2.6,1.1h2.1C73.8,36.6,72.4,35.4,71.4,34.3"/>
</g>
</svg>
